<svg width="38" height="38" viewBox="0 0 38 38" fill="none" xmlns="http://www.w3.org/2000/svg">
<path d="M32.6622 25.3316C32.539 25.1832 32.418 25.0347 32.2993 24.8915C30.6664 22.9165 29.6786 21.7246 29.6786 16.1337C29.6786 13.2391 28.9861 10.8641 27.6212 9.08289C26.6148 7.76699 25.2544 6.76875 23.4613 6.03102C23.4382 6.01818 23.4176 6.00134 23.4004 5.98129C22.7555 3.82152 20.9905 2.375 19 2.375C17.0094 2.375 15.2453 3.82152 14.6003 5.97906C14.5831 5.99841 14.5628 6.01472 14.5402 6.0273C10.3557 7.74992 8.32215 11.0549 8.32215 16.1314C8.32215 21.7246 7.33578 22.9165 5.70148 24.8893C5.58273 25.0325 5.46175 25.178 5.33855 25.3294C5.0203 25.7132 4.81867 26.1801 4.7575 26.6749C4.69634 27.1698 4.77821 27.6717 4.99343 28.1215C5.45136 29.0863 6.42734 29.6853 7.54136 29.6853H30.4668C31.5756 29.6853 32.5449 29.0871 33.0043 28.1267C33.2205 27.6768 33.3031 27.1744 33.2425 26.679C33.1818 26.1837 32.9805 25.716 32.6622 25.3316ZM19 35.625C20.0725 35.6241 21.1247 35.333 22.0452 34.7825C22.9656 34.232 23.7199 33.4426 24.228 32.4982C24.2519 32.4529 24.2637 32.4022 24.2623 32.351C24.2608 32.2999 24.2462 32.2499 24.2198 32.2061C24.1933 32.1622 24.156 32.126 24.1114 32.1008C24.0668 32.0756 24.0164 32.0624 23.9652 32.0625H14.0362C13.985 32.0623 13.9345 32.0754 13.8898 32.1005C13.8451 32.1256 13.8077 32.1619 13.7812 32.2057C13.7546 32.2496 13.7399 32.2996 13.7385 32.3508C13.737 32.4021 13.7488 32.4528 13.7728 32.4982C14.2808 33.4425 15.035 34.2318 15.9553 34.7823C16.8755 35.3328 17.9276 35.624 19 35.625Z" fill="black"/>
</svg>
