<svg width="28" height="29" viewBox="0 0 28 29" fill="none" xmlns="http://www.w3.org/2000/svg">
<path d="M14 25.1692C16.0767 25.1692 18.1068 24.5534 19.8335 23.3996C21.5602 22.2459 22.906 20.606 23.7007 18.6874C24.4955 16.7687 24.7034 14.6575 24.2982 12.6207C23.8931 10.5839 22.8931 8.71302 21.4246 7.24457C19.9562 5.77612 18.0852 4.77609 16.0484 4.37095C14.0116 3.9658 11.9004 4.17374 9.98182 4.96846C8.0632 5.76318 6.42332 7.10899 5.26957 8.83571C4.11581 10.5624 3.5 12.5925 3.5 14.6692C3.5 16.4052 3.92 18.042 4.66667 19.484L3.5 25.1692L9.18517 24.0025C10.6272 24.7492 12.2652 25.1692 14 25.1692Z" stroke="black" stroke-width="2" stroke-linecap="round" stroke-linejoin="round"/>
</svg>
