<svg width="32" height="32" viewBox="0 0 32 32" fill="none" xmlns="http://www.w3.org/2000/svg">
<path d="M14.3067 6.76399C14.8687 6.69891 15.4341 6.66641 16 6.66666C22.2187 6.66666 27.2 10.5373 29.3333 16C28.8168 17.3287 28.1191 18.5797 27.26 19.7173M8.69332 8.69199C5.97332 10.352 3.86666 12.924 2.66666 16C4.79999 21.4627 9.78132 25.3333 16 25.3333C18.5762 25.3469 21.1056 24.6453 23.3067 23.3067M13.1733 13.1733C12.8019 13.5448 12.5072 13.9858 12.3062 14.4711C12.1051 14.9565 12.0016 15.4767 12.0016 16.002C12.0016 16.5273 12.1051 17.0475 12.3062 17.5329C12.5072 18.0182 12.8019 18.4592 13.1733 18.8307C13.5448 19.2021 13.9858 19.4968 14.4711 19.6978C14.9565 19.8989 15.4767 20.0023 16.002 20.0023C16.5273 20.0023 17.0475 19.8989 17.5329 19.6978C18.0182 19.4968 18.4592 19.2021 18.8307 18.8307" stroke="#888888" stroke-width="2.4" stroke-linecap="round" stroke-linejoin="round"/>
<path d="M5.33331 5.33333L26.6666 26.6667" stroke="#888888" stroke-width="2.4" stroke-linecap="round"/>
</svg>
