<svg width="38" height="39" viewBox="0 0 38 39" fill="none" xmlns="http://www.w3.org/2000/svg">
<path d="M30.875 6.4375H7.125C5.15749 6.4375 3.5625 8.03249 3.5625 10V29C3.5625 30.9675 5.15749 32.5625 7.125 32.5625H30.875C32.8425 32.5625 34.4375 30.9675 34.4375 29V10C34.4375 8.03249 32.8425 6.4375 30.875 6.4375Z" stroke="black" stroke-width="2.5" stroke-linejoin="round"/>
<path d="M24.9375 15.9375C26.2492 15.9375 27.3125 14.8742 27.3125 13.5625C27.3125 12.2508 26.2492 11.1875 24.9375 11.1875C23.6258 11.1875 22.5625 12.2508 22.5625 13.5625C22.5625 14.8742 23.6258 15.9375 24.9375 15.9375Z" stroke="black" stroke-width="2.5" stroke-miterlimit="10"/>
<path d="M22.5625 25.4219L15.8338 18.7058C15.4057 18.2777 14.8302 18.0294 14.225 18.0114C13.6198 17.9935 13.0306 18.2074 12.5779 18.6093L3.5625 26.6249M16.625 32.5624L25.7791 23.4083C26.1978 22.9888 26.7581 22.741 27.3501 22.7136C27.9421 22.6861 28.523 22.881 28.9787 23.2599L34.4375 27.8124" stroke="black" stroke-width="2.5" stroke-linecap="round" stroke-linejoin="round"/>
</svg>
