<svg width="24" height="25" viewBox="0 0 24 25" fill="none" xmlns="http://www.w3.org/2000/svg">
<path fill-rule="evenodd" clip-rule="evenodd" d="M11.262 22.8029C11.262 22.8029 4 16.6869 4 10.6689C4 8.54721 4.84285 6.51238 6.34315 5.01209C7.84344 3.5118 9.87827 2.66895 12 2.66895C14.1217 2.66895 16.1566 3.5118 17.6569 5.01209C19.1571 6.51238 20 8.54721 20 10.6689C20 16.6869 12.738 22.8029 12.738 22.8029C12.334 23.1749 11.669 23.1709 11.262 22.8029ZM12 14.1689C12.4596 14.1689 12.9148 14.0784 13.3394 13.9025C13.764 13.7266 14.1499 13.4688 14.4749 13.1438C14.7999 12.8188 15.0577 12.433 15.2336 12.0083C15.4095 11.5837 15.5 11.1286 15.5 10.6689C15.5 10.2093 15.4095 9.75419 15.2336 9.32955C15.0577 8.90491 14.7999 8.51908 14.4749 8.19407C14.1499 7.86907 13.764 7.61126 13.3394 7.43537C12.9148 7.25948 12.4596 7.16895 12 7.16895C11.0717 7.16895 10.1815 7.53769 9.52513 8.19407C8.86875 8.85045 8.5 9.74069 8.5 10.6689C8.5 11.5972 8.86875 12.4874 9.52513 13.1438C10.1815 13.8002 11.0717 14.1689 12 14.1689Z" fill="black"/>
</svg>
