<svg width="40" height="41" viewBox="0 0 40 41" fill="none" xmlns="http://www.w3.org/2000/svg">
<g opacity="0.8">
<path d="M5 20.6691C5 22.5024 6.5 24.0024 8.33333 24.0024C10.1667 24.0024 11.6667 22.5024 11.6667 20.6691C11.6667 18.8358 10.1667 17.3358 8.33333 17.3358C6.5 17.3358 5 18.8358 5 20.6691ZM28.3333 20.6691C28.3333 22.5024 29.8333 24.0024 31.6667 24.0024C33.5 24.0024 35 22.5024 35 20.6691C35 18.8358 33.5 17.3358 31.6667 17.3358C29.8333 17.3358 28.3333 18.8358 28.3333 20.6691ZM16.6667 20.6691C16.6667 22.5024 18.1667 24.0024 20 24.0024C21.8333 24.0024 23.3333 22.5024 23.3333 20.6691C23.3333 18.8358 21.8333 17.3358 20 17.3358C18.1667 17.3358 16.6667 18.8358 16.6667 20.6691Z" fill="black"/>
</g>
</svg>
