<svg width="24" height="28" viewBox="0 0 24 28" fill="none" xmlns="http://www.w3.org/2000/svg">
<path d="M8.85589 27.1387C7.20748 27.139 5.59602 26.6504 4.22532 25.7348C2.85463 24.8191 1.78628 23.5175 1.15542 21.9946C0.524566 20.4717 0.359535 18.7959 0.681208 17.1792C1.00288 15.5624 1.7968 14.0775 2.96255 12.912L13.5692 2.30534C14.6944 1.18012 16.2206 0.547974 17.8119 0.547974C19.4032 0.547974 20.9293 1.18012 22.0546 2.30534C23.1798 3.43057 23.8119 4.9567 23.8119 6.54801C23.8119 8.13932 23.1798 9.66545 22.0546 10.7907L12.8612 19.9827C12.1627 20.6499 11.2339 21.0222 10.2679 21.0222C9.30191 21.0222 8.3731 20.6499 7.67455 19.9827C6.98772 19.2947 6.60217 18.3622 6.60267 17.3901C6.60317 16.418 6.98968 15.4859 7.67722 14.7987L14.5119 7.96268C14.6349 7.83533 14.782 7.73375 14.9447 7.66387C15.1074 7.594 15.2823 7.55721 15.4594 7.55568C15.6364 7.55414 15.812 7.58787 15.9758 7.65491C16.1397 7.72196 16.2886 7.82096 16.4137 7.94615C16.5389 8.07134 16.6379 8.22021 16.705 8.38407C16.772 8.54793 16.8058 8.72351 16.8042 8.90054C16.8027 9.07758 16.7659 9.25254 16.696 9.41522C16.6261 9.57789 16.5246 9.72501 16.3972 9.84801L9.56255 16.684C9.37529 16.8715 9.2701 17.1257 9.2701 17.3907C9.2701 17.6557 9.37529 17.9098 9.56255 18.0973C9.75331 18.2783 10.0063 18.3792 10.2692 18.3792C10.5322 18.3792 10.7851 18.2783 10.9759 18.0973L20.1692 8.90534C20.7931 8.27973 21.1435 7.43223 21.1435 6.54868C21.1435 5.66512 20.7931 4.81762 20.1692 4.19201C19.5342 3.58561 18.6899 3.24724 17.8119 3.24724C16.9338 3.24724 16.0896 3.58561 15.4546 4.19201L4.84789 14.7987C4.31162 15.3226 3.88465 15.9477 3.59171 16.6378C3.29877 17.3279 3.14568 18.0693 3.14132 18.819C3.13695 19.5687 3.28139 20.3118 3.56628 21.0053C3.85116 21.6988 4.27082 22.3288 4.80095 22.8589C5.33107 23.3891 5.96113 23.8087 6.6546 24.0936C7.34808 24.3785 8.09119 24.5229 8.84089 24.5186C9.59058 24.5142 10.332 24.3611 11.0221 24.0682C11.7122 23.7752 12.3373 23.3483 12.8612 22.812L21.1119 14.5627C21.2349 14.4353 21.382 14.3338 21.5447 14.2639C21.7074 14.194 21.8823 14.1572 22.0594 14.1557C22.2364 14.1541 22.412 14.1879 22.5758 14.2549C22.7397 14.322 22.8886 14.421 23.0137 14.5461C23.1389 14.6713 23.2379 14.8202 23.305 14.9841C23.372 15.1479 23.4058 15.3235 23.4042 15.5005C23.4027 15.6776 23.3659 15.8525 23.296 16.0152C23.2261 16.1779 23.1246 16.325 22.9972 16.448L14.7479 24.696C13.9763 25.4732 13.058 26.0894 12.0463 26.5087C11.0346 26.9281 9.94971 27.1422 8.85455 27.1387H8.85589Z" fill="#939393"/>
</svg>
