<svg width="40" height="40" viewBox="0 0 40 40" fill="none" xmlns="http://www.w3.org/2000/svg">
<path d="M11.6663 6.66671C11.6663 5.78265 12.0175 4.93481 12.6427 4.30968C13.2678 3.68456 14.1156 3.33337 14.9997 3.33337H24.9997C25.8837 3.33337 26.7316 3.68456 27.3567 4.30968C27.9818 4.93481 28.333 5.78265 28.333 6.66671V10H34.9997C35.4417 10 35.8656 10.1756 36.1782 10.4882C36.4907 10.8008 36.6663 11.2247 36.6663 11.6667C36.6663 12.1087 36.4907 12.5327 36.1782 12.8452C35.8656 13.1578 35.4417 13.3334 34.9997 13.3334H33.218L31.773 33.57C31.7131 34.411 31.3368 35.1981 30.7199 35.7727C30.1029 36.3473 29.2911 36.6667 28.448 36.6667H11.5497C10.7066 36.6667 9.89479 36.3473 9.27782 35.7727C8.66085 35.1981 8.28453 34.411 8.22467 33.57L6.78301 13.3334H4.99967C4.55765 13.3334 4.13372 13.1578 3.82116 12.8452C3.5086 12.5327 3.33301 12.1087 3.33301 11.6667C3.33301 11.2247 3.5086 10.8008 3.82116 10.4882C4.13372 10.1756 4.55765 10 4.99967 10H11.6663V6.66671ZM14.9997 10H24.9997V6.66671H14.9997V10ZM10.123 13.3334L11.5513 33.3334H28.4497L29.878 13.3334H10.123ZM16.6663 16.6667C17.1084 16.6667 17.5323 16.8423 17.8449 17.1549C18.1574 17.4674 18.333 17.8913 18.333 18.3334V28.3334C18.333 28.7754 18.1574 29.1993 17.8449 29.5119C17.5323 29.8244 17.1084 30 16.6663 30C16.2243 30 15.8004 29.8244 15.4878 29.5119C15.1753 29.1993 14.9997 28.7754 14.9997 28.3334V18.3334C14.9997 17.8913 15.1753 17.4674 15.4878 17.1549C15.8004 16.8423 16.2243 16.6667 16.6663 16.6667ZM23.333 16.6667C23.775 16.6667 24.199 16.8423 24.5115 17.1549C24.8241 17.4674 24.9997 17.8913 24.9997 18.3334V28.3334C24.9997 28.7754 24.8241 29.1993 24.5115 29.5119C24.199 29.8244 23.775 30 23.333 30C22.891 30 22.4671 29.8244 22.1545 29.5119C21.8419 29.1993 21.6663 28.7754 21.6663 28.3334V18.3334C21.6663 17.8913 21.8419 17.4674 22.1545 17.1549C22.4671 16.8423 22.891 16.6667 23.333 16.6667Z" fill="black"/>
</svg>
