<svg width="20" height="14" viewBox="0 0 20 14" fill="none" xmlns="http://www.w3.org/2000/svg">
<path d="M19.9578 4.93379C20.0025 3.63832 19.7192 2.35254 19.1342 1.19584C18.7372 0.72122 18.1863 0.400925 17.5774 0.290768C15.0591 0.0616367 12.5303 -0.0320225 10.002 0.0101957C7.48285 -0.032351 4.96323 0.058283 2.45367 0.281718C1.95752 0.371969 1.49838 0.604686 1.13226 0.951472C0.317695 1.70268 0.227188 2.98789 0.13668 4.07398C0.00457007 6.0267 0.00457007 7.98612 0.13668 9.93885C0.163203 10.5501 0.254215 11.1569 0.408202 11.749C0.517332 12.2061 0.738122 12.629 1.0508 12.9799C1.41941 13.3451 1.88925 13.591 2.39936 13.6859C4.35058 13.9273 6.31671 14.0271 8.28234 13.9845C11.4501 14.0298 14.2287 13.9845 17.5141 13.7311C18.0364 13.641 18.5191 13.3949 18.8988 13.0251C19.152 12.7714 19.3412 12.4612 19.4509 12.1201C19.7743 11.1268 19.9333 10.0874 19.9216 9.04283C19.9578 8.53599 19.9578 5.47684 19.9578 4.93379ZM7.95651 9.58587V3.98347L13.3145 6.79825C11.8121 7.63091 9.83001 8.57219 7.95651 9.58587Z" fill="#1A1A1A"/>
</svg>
